# xmcd
#
# Track frame offsets: 
#        150
#        17000
#        36135
#        53677
#        71132
#        88840
#        100742
#        120027
#        133195
#        146522
#        161880
#        173845
#        188032
#        197250
#        215455
#
# Disc length: 3166 seconds
#
# Revision: 0
# Processed by: cddbd v1.4PL0 Copyright (c) Steve Scherf et al.
# Submitted via: ExactAudioCopy v0.90b4
#
DISCID=ca0c5c0f
DTITLE=The Stephen Barry Band - Happy Man
DYEAR=1995
DGENRE=Blues
TTITLE0=You Were Wrong
TTITLE1=Happy Man
TTITLE2=Tired of Crying
TTITLE3=You Can't Catch Me
TTITLE4=No Place To Go
TTITLE5=Act Like You Love Me
TTITLE6=Please Help
TTITLE7=Winding River
TTITLE8=Sugar Baby
TTITLE9=Ramblin' Blues
TTITLE10=Kansas City Blues
TTITLE11=One Thin Dime
TTITLE12=One of These Days
TTITLE13=I Better Go Now
TTITLE14=Lightbulb
EXTD=
EXTT0=
EXTT1=
EXTT2=
EXTT3=
EXTT4=
EXTT5=
EXTT6=
EXTT7=
EXTT8=
EXTT9=
EXTT10=
EXTT11=
EXTT12=
EXTT13=
EXTT14=
PLAYORDER=
